<svg width="72" height="72" viewBox="0 0 72 72" fill="none" xmlns="http://www.w3.org/2000/svg">
<g clip-path="url(#clip0_1779_76)">
<path d="M46.7994 8H24.6712C24.4603 8 24.2508 8.03333 24.0504 8.09876L18.244 9.99442C15.1091 11.0179 12.6804 13.5211 11.752 16.6854L0.262023 55.8477C0.11437 56.3509 0.380617 56.8828 0.872003 57.0661L10.209 60.5499C10.7153 60.7388 11.28 60.4913 11.4843 59.991L18.5294 42.7407V63C18.5294 63.5523 18.9771 64 19.5294 64H53C53.5523 64 54 63.5523 54 63V42.7407L61.0391 59.9763C61.2458 60.4824 61.8206 60.7287 62.3296 60.5293L71.1382 57.0784C71.6245 56.8878 71.8823 56.3551 71.7299 55.8554L59.753 16.6035C58.8017 13.4858 56.3905 11.0274 53.2918 10.0157L47.4201 8.09876C47.2197 8.03333 47.0103 8 46.7994 8Z" fill="white" stroke="#E0E0E0" stroke-width="2" stroke-linejoin="round"/>
<path fill-rule="evenodd" clip-rule="evenodd" d="M43.2363 10.9474C41.9648 14.0358 39.8151 17.7812 36.3351 19.8573C36.0116 20.0503 35.6071 20.0452 35.2887 19.844C31.9921 17.7616 29.9378 14.0145 28.7155 10.9357C28.2926 9.87035 27.961 8.86375 27.7077 8H29.7974C30.0087 8.67551 30.2659 9.42074 30.5744 10.1978C31.5917 12.7602 33.1156 15.5362 35.2827 17.3637C35.6069 17.6371 36.0758 17.6438 36.4086 17.3808C38.7263 15.5496 40.3291 12.7555 41.3869 10.186C41.705 9.41338 41.9693 8.67222 42.1859 8H44.2806C44.0198 8.86677 43.6768 9.87753 43.2363 10.9474ZM70.038 50.3104L59.0057 54.9974L59.7612 56.8473L70.6243 52.2321L70.038 50.3104ZM54 56.2217H18.5294V58.2217H54V56.2217ZM13.5174 55.013L1.85035 50.4341L1.28516 52.3605L12.7613 56.8644L13.5174 55.013Z" fill="#E0E0E0"/>
<path d="M38.2569 48L46 29H42.0764L36.5556 43.6333H35.5139L29.9931 29H26L33.7083 48H38.2569Z" fill="black"/>
</g>
<defs>
<clipPath id="clip0_1779_76">
<rect width="72" height="72" fill="white"/>
</clipPath>
</defs>
</svg>
